<svg width="81" height="70" viewBox="0 0 81 70" fill="none" xmlns="http://www.w3.org/2000/svg">
<rect width="81" height="70" rx="8" fill="#5CA2FF"/>
<path d="M34.4286 18C34.4286 16.3431 35.7717 15 37.4286 15H44.0714C45.4521 15 46.5714 16.1193 46.5714 17.5C46.5714 18.8807 45.4521 20 44.0714 20H40.2857C38.6289 20 37.2857 21.3431 37.2857 23V27C37.2857 28.6569 38.6289 30 40.2857 30H40.8571C42.5036 30.0004 44.0996 30.9957 45.375 32.8179C46.6404 34.6256 47.5134 37.1369 47.8492 39.9331C47.8538 39.9712 47.8861 40 47.9244 40C47.9662 40 48 40.0338 48 40.0756V42.5C48 45.8152 47.2475 48.9946 45.9079 51.3388C44.5684 53.683 42.7515 55 40.8571 55H40.1429C38.2485 55 36.4316 53.683 35.0921 51.3388C33.9463 49.3336 33.2299 46.7174 33.0467 43.9277C32.995 43.1404 33.6396 42.5 34.4286 42.5C35.2175 42.5 35.8485 43.1416 35.9353 43.9258C36.0967 45.3843 36.5034 46.7376 37.1124 47.8033C37.9161 49.2098 39.0062 50 40.1429 50H40.8571C41.9938 50 43.0839 49.2098 43.8876 47.8033C44.6913 46.3968 45.1429 44.4891 45.1429 42.5C45.1429 40.5109 44.6913 38.6032 43.8876 37.1967C43.0839 35.7902 41.9938 35 40.8571 35H37.4286C35.7717 35 34.4286 33.6569 34.4286 32V18Z" fill="#004AAD"/>
</svg>
