<svg width="81" height="70" viewBox="0 0 81 70" fill="none" xmlns="http://www.w3.org/2000/svg">
<rect width="81" height="70" rx="8" fill="#5CA2FF"/>
<path d="M41.8721 15.6474C42.0189 15.2579 42.3916 15 42.8079 15H44.3913C44.9436 15 45.3913 15.4477 45.3913 16V39C45.3913 39.5523 45.839 40 46.3913 40H47C47.5523 40 48 40.4477 48 41V44C48 44.5523 47.5523 45 47 45H46.3913C45.839 45 45.3913 45.4477 45.3913 46V54C45.3913 54.5523 44.9436 55 44.3913 55H43.7826C43.2303 55 42.7826 54.5523 42.7826 54V46C42.7826 45.4477 42.3349 45 41.7826 45H34C33.4477 45 33 44.5523 33 44V39.3747C33 39.2542 33.0218 39.1348 33.0642 39.022L41.8721 15.6474ZM41.7826 40C42.3349 40 42.7826 39.5523 42.7826 39V27.2603C42.7826 26.1479 41.239 25.8667 40.8468 26.9077L36.4235 38.6474C36.1771 39.3014 36.6605 40 37.3593 40H41.7826Z" fill="#004AAD"/>
</svg>
