<svg width="81" height="70" viewBox="0 0 81 70" fill="none" xmlns="http://www.w3.org/2000/svg">
<rect width="81" height="70" rx="8" fill="#5CA2FF"/>
<path d="M33 26.7647C33 23.6445 33.7902 20.6521 35.1967 18.4458C36.6032 16.2395 38.5109 15 40.5 15H41.8641C41.9391 15 42 15.0609 42 15.1359C42 15.1951 42.0382 15.2472 42.0942 15.2663C45.4702 16.4121 48 21.1253 48 26.7647V26.9176C48 30.5059 46.9695 33.9059 45.1935 36.1671L36.3819 47.398C36.1345 47.7133 36 48.1025 36 48.5034C36 49.4924 36.8017 50.2941 37.7908 50.2941H45.6471C46.9466 50.2941 48 51.3476 48 52.6471C48 53.9466 46.9466 55 45.6471 55H36C34.3431 55 33 53.6569 33 52V47.8847C33.0001 47.185 33.0996 46.4942 33.2914 45.8625C33.4831 45.2308 33.7623 44.6741 34.1085 44.2329L43.302 32.5153C43.8325 31.839 44.2602 30.9856 44.554 30.0173C44.8477 29.0489 45.0001 27.99 45 26.9176V26.7647C45 24.8926 44.5259 23.0972 43.682 21.7734C42.8381 20.4496 41.6935 19.7059 40.5 19.7059C39.3065 19.7059 38.1619 20.4496 37.318 21.7734C36.4741 23.0972 36 24.8926 36 26.7647V27.6176C36 28.4461 35.3284 29.1176 34.5 29.1176C33.6716 29.1176 33 28.4461 33 27.6176V26.7647Z" fill="#004AAD"/>
</svg>
