<svg width="81" height="70" viewBox="0 0 81 70" fill="none" xmlns="http://www.w3.org/2000/svg">
<rect width="81" height="70" rx="8" fill="#5CA2FF"/>
<path d="M40.8693 15.68C41.0066 15.2736 41.3877 15 41.8167 15H43.0052C43.6896 15 44.1717 15.672 43.9525 16.3203L40.0194 27.9516C39.767 28.6981 40.4633 29.4753 41.2403 29.6061C42.3359 29.7906 43.4016 30.3834 44.3584 31.3574C45.8359 32.8617 46.9631 35.1835 47.5506 37.9323C48.1381 40.6811 48.1499 43.6894 47.5841 46.4513C47.0184 49.2133 45.9095 51.5604 44.444 53.098C42.9784 54.6357 41.2456 55.2701 39.5369 54.8946C37.8282 54.5191 36.2477 53.1566 35.0613 51.0362C33.8749 48.9158 33.1548 46.1668 33.0222 43.2514C32.8897 40.336 33.3526 37.432 34.3333 35.0278L40.8693 15.68ZM36.2418 39.1299C35.7672 40.9768 35.7276 43.0622 36.1311 44.9572C36.5346 46.8522 37.3506 48.4129 38.4113 49.3184C39.4719 50.2238 40.6967 50.4053 41.8338 49.8254C42.9709 49.2455 43.9338 47.9483 44.5247 46.2006C45.1156 44.4529 45.2895 42.3874 45.0106 40.4288C44.7317 38.4702 44.0213 36.7674 43.0254 35.6704C42.0294 34.5734 40.8237 34.1656 39.6561 34.5308C38.4884 34.896 37.4476 36.0065 36.7476 37.634L36.2418 39.1299Z" fill="#004AAD"/>
</svg>
