<svg width="81" height="70" viewBox="0 0 81 70" fill="none" xmlns="http://www.w3.org/2000/svg">
<rect width="81" height="70" rx="8" fill="#5CA2FF"/>
<path d="M34.4298 16C34.4298 15.4477 34.8775 15 35.4298 15H46.2976C46.8499 15 47.2976 15.4477 47.2976 16V22.1935C47.2976 22.4241 47.2179 22.6475 47.0721 22.8261L42.3993 28.5478C41.8908 29.1704 42.2915 30.1884 42.9958 30.5757C44.1679 31.2203 45.2355 32.3881 46.0862 33.9877C47.356 36.3752 48.042 39.5357 47.998 42.7951C47.954 46.0545 47.1834 49.1549 45.8506 51.435C44.5178 53.715 42.7283 54.9943 40.8637 55H40.1488C38.2528 55 36.4345 53.683 35.0938 51.3388C33.8886 49.2314 33.1582 46.449 33.0229 43.4998C32.9976 42.948 33.4477 42.5 34 42.5H34.8595C35.4118 42.5 35.8554 42.9485 35.8977 43.4991C36.0223 45.1194 36.4473 46.6344 37.1158 47.8033C37.9202 49.2098 39.0112 50 40.1488 50H40.8637C42.0013 50 43.0923 49.2098 43.8967 47.8033C44.701 46.3968 45.1529 44.4891 45.1529 42.5C45.1529 40.5109 44.701 38.6032 43.8967 37.1967C43.0923 35.7902 42.0013 35 40.8637 35H38.2893C37.737 35 37.2893 34.5523 37.2893 34V29.0565C37.2893 28.8259 37.3689 28.6025 37.5148 28.4239L43.0617 21.6326C43.5951 20.9795 43.1305 20 42.2872 20H35.4298C34.8775 20 34.4298 19.5523 34.4298 19V16Z" fill="#004AAD"/>
</svg>
