<svg width="91" height="125" viewBox="0 0 91 125" fill="none" xmlns="http://www.w3.org/2000/svg">
<path d="M72.5 7.8125C74.8869 7.8125 77.1761 8.6356 78.864 10.1007C80.5518 11.5659 81.5 13.553 81.5 15.625V109.375C81.5 111.447 80.5518 113.434 78.864 114.899C77.1761 116.364 74.8869 117.188 72.5 117.188H18.5C16.1131 117.188 13.8239 116.364 12.136 114.899C10.4482 113.434 9.5 111.447 9.5 109.375V15.625C9.5 13.553 10.4482 11.5659 12.136 10.1007C13.8239 8.6356 16.1131 7.8125 18.5 7.8125H72.5ZM18.5 0C13.7261 0 9.14773 1.6462 5.77208 4.57646C2.39642 7.50671 0.5 11.481 0.5 15.625V109.375C0.5 113.519 2.39642 117.493 5.77208 120.424C9.14773 123.354 13.7261 125 18.5 125H72.5C77.2739 125 81.8523 123.354 85.2279 120.424C88.6036 117.493 90.5 113.519 90.5 109.375V15.625C90.5 11.481 88.6036 7.50671 85.2279 4.57646C81.8523 1.6462 77.2739 0 72.5 0L18.5 0Z" fill="#004AAD"/>
<path d="M45.5 109.375C47.8869 109.375 50.1761 108.552 51.864 107.087C53.5518 105.622 54.5 103.635 54.5 101.562C54.5 99.4905 53.5518 97.5034 51.864 96.0382C50.1761 94.5731 47.8869 93.75 45.5 93.75C43.1131 93.75 40.8239 94.5731 39.136 96.0382C37.4482 97.5034 36.5 99.4905 36.5 101.562C36.5 103.635 37.4482 105.622 39.136 107.087C40.8239 108.552 43.1131 109.375 45.5 109.375Z" fill="#004AAD"/>
<path d="M32.41 21.82H35.55V23H30.79V21.92L33.91 17.2H30.79V16.02H35.55V17.1L32.41 21.82ZM40.5246 17.15V18.9H42.8746V20.01H40.5246V21.86H43.1746V23H39.1246V16.01H43.1746V17.15H40.5246ZM49.2396 23.07C48.753 23.07 48.313 22.9867 47.9196 22.82C47.533 22.6533 47.2263 22.4133 46.9996 22.1C46.773 21.7867 46.6563 21.4167 46.6496 20.99H48.1496C48.1696 21.2767 48.2696 21.5033 48.4496 21.67C48.6363 21.8367 48.8896 21.92 49.2096 21.92C49.5363 21.92 49.793 21.8433 49.9796 21.69C50.1663 21.53 50.2596 21.3233 50.2596 21.07C50.2596 20.8633 50.1963 20.6933 50.0696 20.56C49.943 20.4267 49.783 20.3233 49.5896 20.25C49.403 20.17 49.143 20.0833 48.8096 19.99C48.3563 19.8567 47.9863 19.7267 47.6996 19.6C47.4196 19.4667 47.1763 19.27 46.9696 19.01C46.7696 18.7433 46.6696 18.39 46.6696 17.95C46.6696 17.5367 46.773 17.1767 46.9796 16.87C47.1863 16.5633 47.4763 16.33 47.8496 16.17C48.223 16.0033 48.6496 15.92 49.1296 15.92C49.8496 15.92 50.433 16.0967 50.8796 16.45C51.333 16.7967 51.583 17.2833 51.6296 17.91H50.0896C50.0763 17.67 49.973 17.4733 49.7796 17.32C49.593 17.16 49.343 17.08 49.0296 17.08C48.7563 17.08 48.5363 17.15 48.3696 17.29C48.2096 17.43 48.1296 17.6333 48.1296 17.9C48.1296 18.0867 48.1896 18.2433 48.3096 18.37C48.4363 18.49 48.5896 18.59 48.7696 18.67C48.9563 18.7433 49.2163 18.83 49.5496 18.93C50.003 19.0633 50.373 19.1967 50.6596 19.33C50.9463 19.4633 51.193 19.6633 51.3996 19.93C51.6063 20.1967 51.7096 20.5467 51.7096 20.98C51.7096 21.3533 51.613 21.7 51.4196 22.02C51.2263 22.34 50.943 22.5967 50.5696 22.79C50.1963 22.9767 49.753 23.07 49.2396 23.07ZM57.7162 23.07C57.2295 23.07 56.7895 22.9867 56.3962 22.82C56.0095 22.6533 55.7029 22.4133 55.4762 22.1C55.2495 21.7867 55.1329 21.4167 55.1262 20.99H56.6262C56.6462 21.2767 56.7462 21.5033 56.9262 21.67C57.1129 21.8367 57.3662 21.92 57.6862 21.92C58.0129 21.92 58.2695 21.8433 58.4562 21.69C58.6429 21.53 58.7362 21.3233 58.7362 21.07C58.7362 20.8633 58.6729 20.6933 58.5462 20.56C58.4195 20.4267 58.2595 20.3233 58.0662 20.25C57.8795 20.17 57.6195 20.0833 57.2862 19.99C56.8329 19.8567 56.4629 19.7267 56.1762 19.6C55.8962 19.4667 55.6529 19.27 55.4462 19.01C55.2462 18.7433 55.1462 18.39 55.1462 17.95C55.1462 17.5367 55.2495 17.1767 55.4562 16.87C55.6629 16.5633 55.9529 16.33 56.3262 16.17C56.6995 16.0033 57.1262 15.92 57.6062 15.92C58.3262 15.92 58.9095 16.0967 59.3562 16.45C59.8095 16.7967 60.0595 17.2833 60.1062 17.91H58.5662C58.5529 17.67 58.4495 17.4733 58.2562 17.32C58.0695 17.16 57.8195 17.08 57.5062 17.08C57.2329 17.08 57.0129 17.15 56.8462 17.29C56.6862 17.43 56.6062 17.6333 56.6062 17.9C56.6062 18.0867 56.6662 18.2433 56.7862 18.37C56.9129 18.49 57.0662 18.59 57.2462 18.67C57.4329 18.7433 57.6929 18.83 58.0262 18.93C58.4795 19.0633 58.8495 19.1967 59.1362 19.33C59.4229 19.4633 59.6695 19.6633 59.8762 19.93C60.0829 20.1967 60.1862 20.5467 60.1862 20.98C60.1862 21.3533 60.0895 21.7 59.8962 22.02C59.7029 22.34 59.4195 22.5967 59.0462 22.79C58.6729 22.9767 58.2295 23.07 57.7162 23.07Z" fill="#003173"/>
<path d="M13.7895 34.5C13.7895 33.8133 13.9428 33.2 14.2495 32.66C14.5628 32.1133 14.9861 31.69 15.5195 31.39C16.0595 31.0833 16.6628 30.93 17.3295 30.93C18.1095 30.93 18.7928 31.13 19.3795 31.53C19.9661 31.93 20.3761 32.4833 20.6095 33.19H18.9995C18.8395 32.8567 18.6128 32.6067 18.3195 32.44C18.0328 32.2733 17.6995 32.19 17.3195 32.19C16.9128 32.19 16.5495 32.2867 16.2295 32.48C15.9161 32.6667 15.6695 32.9333 15.4895 33.28C15.3161 33.6267 15.2295 34.0333 15.2295 34.5C15.2295 34.96 15.3161 35.3667 15.4895 35.72C15.6695 36.0667 15.9161 36.3367 16.2295 36.53C16.5495 36.7167 16.9128 36.81 17.3195 36.81C17.6995 36.81 18.0328 36.7267 18.3195 36.56C18.6128 36.3867 18.8395 36.1333 18.9995 35.8H20.6095C20.3761 36.5133 19.9661 37.07 19.3795 37.47C18.7995 37.8633 18.1161 38.06 17.3295 38.06C16.6628 38.06 16.0595 37.91 15.5195 37.61C14.9861 37.3033 14.5628 36.88 14.2495 36.34C13.9428 35.8 13.7895 35.1867 13.7895 34.5ZM25.0452 38.07C24.3919 38.07 23.7919 37.9167 23.2452 37.61C22.6986 37.3033 22.2652 36.88 21.9452 36.34C21.6252 35.7933 21.4652 35.1767 21.4652 34.49C21.4652 33.81 21.6252 33.2 21.9452 32.66C22.2652 32.1133 22.6986 31.6867 23.2452 31.38C23.7919 31.0733 24.3919 30.92 25.0452 30.92C25.7052 30.92 26.3052 31.0733 26.8452 31.38C27.3919 31.6867 27.8219 32.1133 28.1352 32.66C28.4552 33.2 28.6152 33.81 28.6152 34.49C28.6152 35.1767 28.4552 35.7933 28.1352 36.34C27.8219 36.88 27.3919 37.3033 26.8452 37.61C26.2986 37.9167 25.6986 38.07 25.0452 38.07ZM25.0452 36.82C25.4652 36.82 25.8352 36.7267 26.1552 36.54C26.4752 36.3467 26.7252 36.0733 26.9052 35.72C27.0852 35.3667 27.1752 34.9567 27.1752 34.49C27.1752 34.0233 27.0852 33.6167 26.9052 33.27C26.7252 32.9167 26.4752 32.6467 26.1552 32.46C25.8352 32.2733 25.4652 32.18 25.0452 32.18C24.6252 32.18 24.2519 32.2733 23.9252 32.46C23.6052 32.6467 23.3552 32.9167 23.1752 33.27C22.9952 33.6167 22.9052 34.0233 22.9052 34.49C22.9052 34.9567 22.9952 35.3667 23.1752 35.72C23.3552 36.0733 23.6052 36.3467 23.9252 36.54C24.2519 36.7267 24.6252 36.82 25.0452 36.82ZM35.6268 38H34.2268L31.0568 33.21V38H29.6568V31.01H31.0568L34.2268 35.81V31.01H35.6268V38ZM39.4203 38.07C38.9336 38.07 38.4936 37.9867 38.1003 37.82C37.7136 37.6533 37.407 37.4133 37.1803 37.1C36.9536 36.7867 36.837 36.4167 36.8303 35.99H38.3303C38.3503 36.2767 38.4503 36.5033 38.6303 36.67C38.817 36.8367 39.0703 36.92 39.3903 36.92C39.717 36.92 39.9736 36.8433 40.1603 36.69C40.347 36.53 40.4403 36.3233 40.4403 36.07C40.4403 35.8633 40.377 35.6933 40.2503 35.56C40.1236 35.4267 39.9636 35.3233 39.7703 35.25C39.5836 35.17 39.3236 35.0833 38.9903 34.99C38.537 34.8567 38.167 34.7267 37.8803 34.6C37.6003 34.4667 37.357 34.27 37.1503 34.01C36.9503 33.7433 36.8503 33.39 36.8503 32.95C36.8503 32.5367 36.9536 32.1767 37.1603 31.87C37.367 31.5633 37.657 31.33 38.0303 31.17C38.4036 31.0033 38.8303 30.92 39.3103 30.92C40.0303 30.92 40.6136 31.0967 41.0603 31.45C41.5136 31.7967 41.7636 32.2833 41.8103 32.91H40.2703C40.257 32.67 40.1536 32.4733 39.9603 32.32C39.7736 32.16 39.5236 32.08 39.2103 32.08C38.937 32.08 38.717 32.15 38.5503 32.29C38.3903 32.43 38.3103 32.6333 38.3103 32.9C38.3103 33.0867 38.3703 33.2433 38.4903 33.37C38.617 33.49 38.7703 33.59 38.9503 33.67C39.137 33.7433 39.397 33.83 39.7303 33.93C40.1836 34.0633 40.5536 34.1967 40.8403 34.33C41.127 34.4633 41.3736 34.6633 41.5803 34.93C41.787 35.1967 41.8903 35.5467 41.8903 35.98C41.8903 36.3533 41.7936 36.7 41.6003 37.02C41.407 37.34 41.1236 37.5967 40.7503 37.79C40.377 37.9767 39.9336 38.07 39.4203 38.07ZM44.4841 31.02V35.34C44.4841 35.8133 44.6074 36.1767 44.8541 36.43C45.1007 36.6767 45.4474 36.8 45.8941 36.8C46.3474 36.8 46.6974 36.6767 46.9441 36.43C47.1907 36.1767 47.3141 35.8133 47.3141 35.34V31.02H48.7241V35.33C48.7241 35.9233 48.5941 36.4267 48.3341 36.84C48.0807 37.2467 47.7374 37.5533 47.3041 37.76C46.8774 37.9667 46.4007 38.07 45.8741 38.07C45.3541 38.07 44.8807 37.9667 44.4541 37.76C44.0341 37.5533 43.7007 37.2467 43.4541 36.84C43.2074 36.4267 43.0841 35.9233 43.0841 35.33V31.02H44.4841ZM51.4767 36.89H53.7767V38H50.0767V31.02H51.4767V36.89ZM59.4166 31.02V32.15H57.5566V38H56.1566V32.15H54.2966V31.02H59.4166ZM61.838 31.02V38H60.438V31.02H61.838ZM69.1913 38H67.7913L64.6213 33.21V38H63.2213V31.01H64.6213L67.7913 35.81V31.01H69.1913V38ZM75.4348 33.12C75.2748 32.8267 75.0548 32.6033 74.7748 32.45C74.4948 32.2967 74.1681 32.22 73.7948 32.22C73.3814 32.22 73.0148 32.3133 72.6948 32.5C72.3748 32.6867 72.1248 32.9533 71.9448 33.3C71.7648 33.6467 71.6748 34.0467 71.6748 34.5C71.6748 34.9667 71.7648 35.3733 71.9448 35.72C72.1314 36.0667 72.3881 36.3333 72.7148 36.52C73.0414 36.7067 73.4214 36.8 73.8548 36.8C74.3881 36.8 74.8248 36.66 75.1648 36.38C75.5048 36.0933 75.7281 35.6967 75.8348 35.19H73.4348V34.12H77.2148V35.34C77.1214 35.8267 76.9214 36.2767 76.6148 36.69C76.3081 37.1033 75.9114 37.4367 75.4248 37.69C74.9448 37.9367 74.4048 38.06 73.8048 38.06C73.1314 38.06 72.5214 37.91 71.9748 37.61C71.4348 37.3033 71.0081 36.88 70.6948 36.34C70.3881 35.8 70.2348 35.1867 70.2348 34.5C70.2348 33.8133 70.3881 33.2 70.6948 32.66C71.0081 32.1133 71.4348 31.69 71.9748 31.39C72.5214 31.0833 73.1281 30.93 73.7948 30.93C74.5814 30.93 75.2648 31.1233 75.8448 31.51C76.4248 31.89 76.8248 32.4267 77.0448 33.12H75.4348Z" fill="#5FA0FA"/>
</svg>
