<svg width="125" height="124" viewBox="0 0 125 124" fill="none" xmlns="http://www.w3.org/2000/svg">
<mask id="mask0_733_491" style="mask-type:luminance" maskUnits="userSpaceOnUse" x="0" y="0" width="125" height="124">
<path d="M62.5 48.6667C65.5642 48.6667 68.5983 48.0631 71.4293 46.8905C74.2602 45.7179 76.8325 43.9992 78.9992 41.8325C81.1659 39.6658 82.8846 37.0935 84.0572 34.2626C85.2298 31.4317 85.8333 28.3975 85.8333 25.3333C85.8333 22.2692 85.2298 19.235 84.0572 16.4041C82.8846 13.5731 81.1659 11.0009 78.9992 8.83418C76.8325 6.66748 74.2602 4.94875 71.4293 3.77614C68.5983 2.60353 65.5642 2 62.5 2C56.3116 2 50.3767 4.45833 46.0008 8.83418C41.625 13.21 39.1667 19.1449 39.1667 25.3333C39.1667 31.5217 41.625 37.4566 46.0008 41.8325C50.3767 46.2083 56.3116 48.6667 62.5 48.6667ZM2.5 118V122H122.5V118C122.5 103.067 122.5 95.6 119.593 89.8933C117.037 84.8759 112.957 80.7966 107.94 78.24C102.233 75.3333 94.7667 75.3333 79.8333 75.3333H45.1667C30.2333 75.3333 22.7667 75.3333 17.06 78.24C12.0426 80.7966 7.96325 84.8759 5.40667 89.8933C2.5 95.6 2.5 103.067 2.5 118Z" fill="white" stroke="white" stroke-width="4" stroke-linecap="round" stroke-linejoin="round"/>
</mask>
<g mask="url(#mask0_733_491)">
<path d="M-17.5 -18H142.5V142H-17.5V-18Z" fill="#004AAD"/>
</g>
</svg>
