<svg width="130" height="130" viewBox="0 0 130 130" fill="none" xmlns="http://www.w3.org/2000/svg">
<path d="M113.75 121.333V26H89.375V0H16.25V121.333H0V130H56.875V104H73.125V130H130V121.333H113.75ZM48.75 86.6667H32.5V69.3333H48.75V86.6667ZM48.75 60.6667H32.5V43.3333H48.75V60.6667ZM48.75 34.6667H32.5V17.3333H48.75V34.6667ZM73.125 86.6667H56.875V69.3333H73.125V86.6667ZM73.125 60.6667H56.875V43.3333H73.125V60.6667ZM73.125 34.6667H56.875V17.3333H73.125V34.6667ZM105.625 86.6667H89.375V69.3333H105.625V86.6667ZM105.625 60.6667H89.375V43.3333H105.625V60.6667Z" fill="#004AAD"/>
</svg>
