<svg width="208" height="211" viewBox="0 0 208 211" fill="none" xmlns="http://www.w3.org/2000/svg">
<mask id="mask0_662_304" style="mask-type:luminance" maskUnits="userSpaceOnUse" x="42" y="0" width="124" height="124">
<path d="M104 48.6667C107.064 48.6667 110.098 48.0631 112.929 46.8905C115.76 45.7179 118.332 43.9992 120.499 41.8325C122.666 39.6658 124.385 37.0935 125.557 34.2626C126.73 31.4317 127.333 28.3975 127.333 25.3333C127.333 22.2692 126.73 19.235 125.557 16.4041C124.385 13.5731 122.666 11.0009 120.499 8.83418C118.332 6.66748 115.76 4.94875 112.929 3.77614C110.098 2.60353 107.064 2 104 2C97.8116 2 91.8767 4.45833 87.5008 8.83418C83.125 13.21 80.6667 19.1449 80.6667 25.3333C80.6667 31.5217 83.125 37.4566 87.5008 41.8325C91.8767 46.2083 97.8116 48.6667 104 48.6667ZM44 118V122H164V118C164 103.067 164 95.6 161.093 89.8933C158.537 84.8759 154.457 80.7966 149.44 78.24C143.733 75.3333 136.267 75.3333 121.333 75.3333H86.6667C71.7333 75.3333 64.2667 75.3333 58.56 78.24C53.5426 80.7966 49.4633 84.8759 46.9067 89.8933C44 95.6 44 103.067 44 118Z" fill="white" stroke="white" stroke-width="4" stroke-linecap="round" stroke-linejoin="round"/>
</mask>
<g mask="url(#mask0_662_304)">
<path d="M24 -18H184V142H24V-18Z" fill="#004AAD"/>
</g>
<path d="M8.352 162.93C10.276 162.93 11.9573 163.303 13.396 164.048C14.852 164.776 15.97 165.833 16.75 167.22C17.5473 168.589 17.946 170.193 17.946 172.03C17.946 173.867 17.5473 175.462 16.75 176.814C15.97 178.166 14.852 179.206 13.396 179.934C11.9573 180.645 10.276 181 8.352 181H2.45V162.93H8.352ZM8.352 178.582C10.4667 178.582 12.0873 178.01 13.214 176.866C14.3407 175.722 14.904 174.11 14.904 172.03C14.904 169.933 14.3407 168.295 13.214 167.116C12.0873 165.937 10.4667 165.348 8.352 165.348H5.414V178.582H8.352ZM23.8476 168.754C24.2809 168.026 24.8529 167.463 25.5636 167.064C26.2916 166.648 27.1496 166.44 28.1376 166.44V169.508H27.3836C26.2223 169.508 25.3383 169.803 24.7316 170.392C24.1423 170.981 23.8476 172.004 23.8476 173.46V181H20.8836V166.674H23.8476V168.754ZM32.0581 181.182C31.5208 181.182 31.0701 181 30.7061 180.636C30.3421 180.272 30.1601 179.821 30.1601 179.284C30.1601 178.747 30.3421 178.296 30.7061 177.932C31.0701 177.568 31.5208 177.386 32.0581 177.386C32.5781 177.386 33.0201 177.568 33.3841 177.932C33.7481 178.296 33.9301 178.747 33.9301 179.284C33.9301 179.821 33.7481 180.272 33.3841 180.636C33.0201 181 32.5781 181.182 32.0581 181.182ZM43.0876 181.182C41.8743 181.182 40.7823 180.974 39.8116 180.558C38.8409 180.125 38.0783 179.518 37.5236 178.738C36.9689 177.958 36.6916 177.048 36.6916 176.008H39.8636C39.9329 176.788 40.2363 177.429 40.7736 177.932C41.3283 178.435 42.0996 178.686 43.0876 178.686C44.1103 178.686 44.9076 178.443 45.4796 177.958C46.0516 177.455 46.3376 176.814 46.3376 176.034C46.3376 175.427 46.1556 174.933 45.7916 174.552C45.4449 174.171 45.0029 173.876 44.4656 173.668C43.9456 173.46 43.2176 173.235 42.2816 172.992C41.1029 172.68 40.1409 172.368 39.3956 172.056C38.6676 171.727 38.0436 171.224 37.5236 170.548C37.0036 169.872 36.7436 168.971 36.7436 167.844C36.7436 166.804 37.0036 165.894 37.5236 165.114C38.0436 164.334 38.7716 163.736 39.7076 163.32C40.6436 162.904 41.7269 162.696 42.9576 162.696C44.7083 162.696 46.1383 163.138 47.2476 164.022C48.3743 164.889 48.9983 166.085 49.1196 167.61H45.8436C45.7916 166.951 45.4796 166.388 44.9076 165.92C44.3356 165.452 43.5816 165.218 42.6456 165.218C41.7963 165.218 41.1029 165.435 40.5656 165.868C40.0283 166.301 39.7596 166.925 39.7596 167.74C39.7596 168.295 39.9243 168.754 40.2536 169.118C40.6003 169.465 41.0336 169.742 41.5536 169.95C42.0736 170.158 42.7843 170.383 43.6856 170.626C44.8816 170.955 45.8523 171.285 46.5976 171.614C47.3603 171.943 48.0016 172.455 48.5216 173.148C49.0589 173.824 49.3276 174.734 49.3276 175.878C49.3276 176.797 49.0763 177.663 48.5736 178.478C48.0883 179.293 47.3689 179.951 46.4156 180.454C45.4796 180.939 44.3703 181.182 43.0876 181.182ZM56.283 169.092V177.022C56.283 177.559 56.4043 177.949 56.647 178.192C56.907 178.417 57.3403 178.53 57.947 178.53H59.767V181H57.427C56.0923 181 55.0697 180.688 54.359 180.064C53.6483 179.44 53.293 178.426 53.293 177.022V169.092H51.603V166.674H53.293V163.112H56.283V166.674H59.767V169.092H56.283ZM75.6288 173.486C75.6288 174.023 75.5942 174.509 75.5248 174.942H64.5788C64.6655 176.086 65.0902 177.005 65.8528 177.698C66.6155 178.391 67.5515 178.738 68.6608 178.738C70.2555 178.738 71.3822 178.071 72.0408 176.736H75.2388C74.8055 178.053 74.0168 179.137 72.8728 179.986C71.7462 180.818 70.3422 181.234 68.6608 181.234C67.2915 181.234 66.0608 180.931 64.9688 180.324C63.8942 179.7 63.0448 178.833 62.4208 177.724C61.8142 176.597 61.5108 175.297 61.5108 173.824C61.5108 172.351 61.8055 171.059 62.3948 169.95C63.0015 168.823 63.8422 167.957 64.9168 167.35C66.0088 166.743 67.2568 166.44 68.6608 166.44C70.0128 166.44 71.2175 166.735 72.2748 167.324C73.3322 167.913 74.1555 168.745 74.7448 169.82C75.3342 170.877 75.6288 172.099 75.6288 173.486ZM72.5348 172.55C72.5175 171.458 72.1275 170.583 71.3648 169.924C70.6022 169.265 69.6575 168.936 68.5308 168.936C67.5082 168.936 66.6328 169.265 65.9048 169.924C65.1768 170.565 64.7435 171.441 64.6048 172.55H72.5348ZM81.5097 168.78C82.0124 168.121 82.697 167.567 83.5637 167.116C84.4304 166.665 85.4097 166.44 86.5017 166.44C87.7497 166.44 88.885 166.752 89.9077 167.376C90.9477 167.983 91.7624 168.841 92.3517 169.95C92.941 171.059 93.2357 172.333 93.2357 173.772C93.2357 175.211 92.941 176.502 92.3517 177.646C91.7624 178.773 90.9477 179.657 89.9077 180.298C88.885 180.922 87.7497 181.234 86.5017 181.234C85.4097 181.234 84.439 181.017 83.5897 180.584C82.7404 180.133 82.047 179.579 81.5097 178.92V187.812H78.5457V166.674H81.5097V168.78ZM90.2197 173.772C90.2197 172.784 90.0117 171.935 89.5957 171.224C89.197 170.496 88.6597 169.95 87.9837 169.586C87.325 169.205 86.6144 169.014 85.8517 169.014C85.1064 169.014 84.3957 169.205 83.7197 169.586C83.061 169.967 82.5237 170.522 82.1077 171.25C81.709 171.978 81.5097 172.836 81.5097 173.824C81.5097 174.812 81.709 175.679 82.1077 176.424C82.5237 177.152 83.061 177.707 83.7197 178.088C84.3957 178.469 85.1064 178.66 85.8517 178.66C86.6144 178.66 87.325 178.469 87.9837 178.088C88.6597 177.689 89.197 177.117 89.5957 176.372C90.0117 175.627 90.2197 174.76 90.2197 173.772ZM95.1788 173.772C95.1788 172.333 95.4735 171.059 96.0628 169.95C96.6695 168.841 97.4841 167.983 98.5068 167.376C99.5468 166.752 100.691 166.44 101.939 166.44C103.065 166.44 104.045 166.665 104.877 167.116C105.726 167.549 106.402 168.095 106.905 168.754V166.674H109.895V181H106.905V178.868C106.402 179.544 105.717 180.107 104.851 180.558C103.984 181.009 102.996 181.234 101.887 181.234C100.656 181.234 99.5295 180.922 98.5068 180.298C97.4841 179.657 96.6695 178.773 96.0628 177.646C95.4735 176.502 95.1788 175.211 95.1788 173.772ZM106.905 173.824C106.905 172.836 106.697 171.978 106.281 171.25C105.882 170.522 105.353 169.967 104.695 169.586C104.036 169.205 103.325 169.014 102.563 169.014C101.8 169.014 101.089 169.205 100.431 169.586C99.7721 169.95 99.2348 170.496 98.8188 171.224C98.4201 171.935 98.2208 172.784 98.2208 173.772C98.2208 174.76 98.4201 175.627 98.8188 176.372C99.2348 177.117 99.7721 177.689 100.431 178.088C101.107 178.469 101.817 178.66 102.563 178.66C103.325 178.66 104.036 178.469 104.695 178.088C105.353 177.707 105.882 177.152 106.281 176.424C106.697 175.679 106.905 174.812 106.905 173.824ZM121.016 166.44C122.143 166.44 123.148 166.674 124.032 167.142C124.933 167.61 125.635 168.303 126.138 169.222C126.641 170.141 126.892 171.25 126.892 172.55V181H123.954V172.992C123.954 171.709 123.633 170.73 122.992 170.054C122.351 169.361 121.475 169.014 120.366 169.014C119.257 169.014 118.373 169.361 117.714 170.054C117.073 170.73 116.752 171.709 116.752 172.992V181H113.788V166.674H116.752V168.312C117.237 167.723 117.853 167.263 118.598 166.934C119.361 166.605 120.167 166.44 121.016 166.44ZM140.287 178.426H148.685V181H136.777V178.686L145.149 165.504H136.777V162.93H148.685V165.244L140.287 178.426ZM165.055 173.486C165.055 174.023 165.02 174.509 164.951 174.942H154.005C154.091 176.086 154.516 177.005 155.279 177.698C156.041 178.391 156.977 178.738 158.087 178.738C159.681 178.738 160.808 178.071 161.467 176.736H164.665C164.231 178.053 163.443 179.137 162.299 179.986C161.172 180.818 159.768 181.234 158.087 181.234C156.717 181.234 155.487 180.931 154.395 180.324C153.32 179.7 152.471 178.833 151.847 177.724C151.24 176.597 150.937 175.297 150.937 173.824C150.937 172.351 151.231 171.059 151.821 169.95C152.427 168.823 153.268 167.957 154.343 167.35C155.435 166.743 156.683 166.44 158.087 166.44C159.439 166.44 160.643 166.735 161.701 167.324C162.758 167.913 163.581 168.745 164.171 169.82C164.76 170.877 165.055 172.099 165.055 173.486ZM161.961 172.55C161.943 171.458 161.553 170.583 160.791 169.924C160.028 169.265 159.083 168.936 157.957 168.936C156.934 168.936 156.059 169.265 155.331 169.924C154.603 170.565 154.169 171.441 154.031 172.55H161.961ZM175.199 166.44C176.326 166.44 177.331 166.674 178.215 167.142C179.117 167.61 179.819 168.303 180.321 169.222C180.824 170.141 181.075 171.25 181.075 172.55V181H178.137V172.992C178.137 171.709 177.817 170.73 177.175 170.054C176.534 169.361 175.659 169.014 174.549 169.014C173.44 169.014 172.556 169.361 171.897 170.054C171.256 170.73 170.935 171.709 170.935 172.992V181H167.971V166.674H170.935V168.312C171.421 167.723 172.036 167.263 172.781 166.934C173.544 166.605 174.35 166.44 175.199 166.44ZM186.364 164.776C185.827 164.776 185.376 164.594 185.012 164.23C184.648 163.866 184.466 163.415 184.466 162.878C184.466 162.341 184.648 161.89 185.012 161.526C185.376 161.162 185.827 160.98 186.364 160.98C186.884 160.98 187.326 161.162 187.69 161.526C188.054 161.89 188.236 162.341 188.236 162.878C188.236 163.415 188.054 163.866 187.69 164.23C187.326 164.594 186.884 164.776 186.364 164.776ZM187.82 166.674V181H184.856V166.674H187.82ZM198.94 166.44C200.066 166.44 201.072 166.674 201.956 167.142C202.857 167.61 203.559 168.303 204.062 169.222C204.564 170.141 204.816 171.25 204.816 172.55V181H201.878V172.992C201.878 171.709 201.557 170.73 200.916 170.054C200.274 169.361 199.399 169.014 198.29 169.014C197.18 169.014 196.296 169.361 195.638 170.054C194.996 170.73 194.676 171.709 194.676 172.992V181H191.712V166.674H194.676V168.312C195.161 167.723 195.776 167.263 196.522 166.934C197.284 166.605 198.09 166.44 198.94 166.44Z" fill="#004AAD"/>
</svg>
