<svg width="131" height="130" viewBox="0 0 131 130" fill="none" xmlns="http://www.w3.org/2000/svg">
<path d="M114.25 121.333V26H89.875V0H16.75V121.333H0.5V130H57.375V104H73.625V130H130.5V121.333H114.25ZM49.25 86.6667H33V69.3333H49.25V86.6667ZM49.25 60.6667H33V43.3333H49.25V60.6667ZM49.25 34.6667H33V17.3333H49.25V34.6667ZM73.625 86.6667H57.375V69.3333H73.625V86.6667ZM73.625 60.6667H57.375V43.3333H73.625V60.6667ZM73.625 34.6667H57.375V17.3333H73.625V34.6667ZM106.125 86.6667H89.875V69.3333H106.125V86.6667ZM106.125 60.6667H89.875V43.3333H106.125V60.6667Z" fill="#004AAD"/>
</svg>
