<svg width="121" height="120" viewBox="0 0 121 120" fill="none" xmlns="http://www.w3.org/2000/svg">
<g opacity="0.1">
<path d="M60.5989 119.5H60.5981C33.7115 119.512 10.0956 101.825 2.77534 76.203C-4.54508 50.582 6.21107 23.2603 29.1134 9.31321L28.8534 8.88616L29.1134 9.3132C51.8705 -4.54588 81.1103 -1.84222 100.881 15.8915L87.2489 30.0617C71.1152 15.9884 46.6222 16.9352 31.6459 32.2922C16.555 47.7666 16.555 72.3061 31.6459 87.7806C46.6224 103.138 71.1159 104.084 87.2496 90.0104L100.881 104.125C89.8555 114.029 75.4954 119.515 60.5989 119.5ZM109.341 80.6566C111.808 80.6566 113.8 82.6364 113.8 85.0683C113.8 87.5006 111.808 89.4804 109.341 89.4804C106.875 89.4804 104.883 87.5006 104.883 85.0683C104.883 82.6364 106.875 80.6566 109.341 80.6566ZM115.041 63.8615C117.507 63.8615 119.499 65.8404 119.5 68.2714C119.49 70.701 117.503 72.6761 115.039 72.6854C112.574 72.6844 110.583 70.705 110.583 68.2732C110.583 65.8414 112.575 63.8615 115.041 63.8615ZM60.2154 47.5007C67.1901 47.5007 72.8357 53.1008 72.8357 59.9985C72.8357 66.8968 67.1901 72.4964 60.2154 72.4964C53.2412 72.4964 47.5952 66.8967 47.5952 59.9985C47.5952 53.1008 53.2412 47.5007 60.2154 47.5007ZM100.284 63.2945C102.75 63.2945 104.742 65.2744 104.742 67.7067C104.742 70.139 102.75 72.1184 100.284 72.1184C97.8167 72.1184 95.8251 70.139 95.8251 67.7067C95.8251 65.2744 97.8168 63.2945 100.284 63.2945ZM100.284 47.8977C102.75 47.8977 104.742 49.8771 104.742 52.3094C104.742 54.7417 102.75 56.7216 100.284 56.7216C97.8168 56.7216 95.8251 54.7417 95.8251 52.3094C95.8251 49.8771 97.8167 47.8977 100.284 47.8977ZM115.042 47.3312C117.508 47.3312 119.499 49.3096 119.5 51.7411C119.491 54.1699 117.504 56.1448 115.041 56.1546C112.575 56.1541 110.584 54.1749 110.584 51.7429C110.584 49.3106 112.575 47.3312 115.042 47.3312ZM109.626 30.7999C112.092 30.7999 114.084 32.7797 114.084 35.2116C114.084 37.6439 112.092 39.6237 109.626 39.6237C107.159 39.6237 105.168 37.6439 105.168 35.2116C105.168 32.7797 107.159 30.7999 109.626 30.7999Z" fill="#004AAD" stroke="#003173"/>
<path d="M114.5 35C114.5 37.4415 112.307 39.5 109.5 39.5C106.693 39.5 104.5 37.4415 104.5 35C104.5 32.5585 106.693 30.5 109.5 30.5C112.307 30.5 114.5 32.5585 114.5 35Z" fill="#5CA2FF" stroke="#003173"/>
<path d="M120.5 52C120.5 54.4415 118.307 56.5 115.5 56.5C112.693 56.5 110.5 54.4415 110.5 52C110.5 49.5585 112.693 47.5 115.5 47.5C118.307 47.5 120.5 49.5585 120.5 52Z" fill="#5CA2FF" stroke="#003173"/>
<path d="M120.5 68C120.5 70.4415 118.307 72.5 115.5 72.5C112.693 72.5 110.5 70.4415 110.5 68C110.5 65.5585 112.693 63.5 115.5 63.5C118.307 63.5 120.5 65.5585 120.5 68Z" fill="#5CA2FF" stroke="#003173"/>
<path d="M105.5 68C105.5 70.4415 103.307 72.5 100.5 72.5C97.6927 72.5 95.5 70.4415 95.5 68C95.5 65.5585 97.6927 63.5 100.5 63.5C103.307 63.5 105.5 65.5585 105.5 68Z" fill="#5CA2FF" stroke="#003173"/>
<path d="M105.5 52C105.5 54.4415 103.307 56.5 100.5 56.5C97.6927 56.5 95.5 54.4415 95.5 52C95.5 49.5585 97.6927 47.5 100.5 47.5C103.307 47.5 105.5 49.5585 105.5 52Z" fill="#5CA2FF" stroke="#003173"/>
<path d="M114.5 85C114.5 87.4415 112.307 89.5 109.5 89.5C106.693 89.5 104.5 87.4415 104.5 85C104.5 82.5585 106.693 80.5 109.5 80.5C112.307 80.5 114.5 82.5585 114.5 85Z" fill="#5CA2FF" stroke="#003173"/>
<path d="M73.5 60C73.5 66.8859 67.6977 72.5 60.5 72.5C53.3023 72.5 47.5 66.8859 47.5 60C47.5 53.1141 53.3023 47.5 60.5 47.5C67.6977 47.5 73.5 53.1141 73.5 60Z" fill="#5CA2FF" stroke="#003173"/>
</g>
</svg>
