<svg width="315" height="69" viewBox="0 0 315 69" fill="none" xmlns="http://www.w3.org/2000/svg">
<rect width="161" height="69" fill="#004AAD"/>
<path d="M40.928 42.972H51.808V45.5H37.472V43.196L48.288 25.724H37.6V23.196H51.744V25.5L40.928 42.972ZM64.2885 25.564V33.02H72.4165V35.42H64.2885V43.1H73.3765V45.5H61.3765V23.164H73.3765V25.564H64.2885ZM90.4548 45.724C88.9828 45.724 87.6601 45.468 86.4868 44.956C85.3348 44.4227 84.4281 43.6973 83.7668 42.78C83.1054 41.8413 82.7641 40.764 82.7428 39.548H85.8468C85.9534 40.5933 86.3801 41.4787 87.1268 42.204C87.8948 42.908 89.0041 43.26 90.4548 43.26C91.8414 43.26 92.9294 42.9187 93.7188 42.236C94.5294 41.532 94.9348 40.636 94.9348 39.548C94.9348 38.6947 94.7001 38.0013 94.2308 37.468C93.7614 36.9347 93.1748 36.5293 92.4708 36.252C91.7668 35.9747 90.8174 35.676 89.6228 35.356C88.1508 34.972 86.9668 34.588 86.0708 34.204C85.1961 33.82 84.4388 33.2227 83.7988 32.412C83.1801 31.58 82.8708 30.4707 82.8708 29.084C82.8708 27.868 83.1801 26.7907 83.7988 25.852C84.4174 24.9133 85.2814 24.188 86.3908 23.676C87.5214 23.164 88.8121 22.908 90.2628 22.908C92.3534 22.908 94.0601 23.4307 95.3828 24.476C96.7268 25.5213 97.4841 26.908 97.6548 28.636H94.4548C94.3481 27.7827 93.9001 27.036 93.1108 26.396C92.3214 25.7347 91.2761 25.404 89.9748 25.404C88.7588 25.404 87.7668 25.724 86.9988 26.364C86.2308 26.9827 85.8468 27.8573 85.8468 28.988C85.8468 29.7987 86.0708 30.46 86.5188 30.972C86.9881 31.484 87.5534 31.8787 88.2148 32.156C88.8974 32.412 89.8468 32.7107 91.0628 33.052C92.5348 33.4573 93.7188 33.8627 94.6148 34.268C95.5108 34.652 96.2788 35.26 96.9188 36.092C97.5588 36.9027 97.8788 38.012 97.8788 39.42C97.8788 40.508 97.5908 41.532 97.0148 42.492C96.4388 43.452 95.5854 44.2307 94.4548 44.828C93.3241 45.4253 91.9908 45.724 90.4548 45.724ZM114.836 45.724C113.364 45.724 112.041 45.468 110.868 44.956C109.716 44.4227 108.809 43.6973 108.148 42.78C107.487 41.8413 107.145 40.764 107.124 39.548H110.228C110.335 40.5933 110.761 41.4787 111.508 42.204C112.276 42.908 113.385 43.26 114.836 43.26C116.223 43.26 117.311 42.9187 118.1 42.236C118.911 41.532 119.316 40.636 119.316 39.548C119.316 38.6947 119.081 38.0013 118.612 37.468C118.143 36.9347 117.556 36.5293 116.852 36.252C116.148 35.9747 115.199 35.676 114.004 35.356C112.532 34.972 111.348 34.588 110.452 34.204C109.577 33.82 108.82 33.2227 108.18 32.412C107.561 31.58 107.252 30.4707 107.252 29.084C107.252 27.868 107.561 26.7907 108.18 25.852C108.799 24.9133 109.663 24.188 110.772 23.676C111.903 23.164 113.193 22.908 114.644 22.908C116.735 22.908 118.441 23.4307 119.764 24.476C121.108 25.5213 121.865 26.908 122.036 28.636H118.836C118.729 27.7827 118.281 27.036 117.492 26.396C116.703 25.7347 115.657 25.404 114.356 25.404C113.14 25.404 112.148 25.724 111.38 26.364C110.612 26.9827 110.228 27.8573 110.228 28.988C110.228 29.7987 110.452 30.46 110.9 30.972C111.369 31.484 111.935 31.8787 112.596 32.156C113.279 32.412 114.228 32.7107 115.444 33.052C116.916 33.4573 118.1 33.8627 118.996 34.268C119.892 34.652 120.66 35.26 121.3 36.092C121.94 36.9027 122.26 38.012 122.26 39.42C122.26 40.508 121.972 41.532 121.396 42.492C120.82 43.452 119.967 44.2307 118.836 44.828C117.705 45.4253 116.372 45.724 114.836 45.724Z" fill="white"/>
<path d="M175.814 34.322C175.814 32.826 176.159 31.484 176.848 30.296C177.552 29.108 178.498 28.184 179.686 27.524C180.889 26.8493 182.201 26.512 183.624 26.512C185.252 26.512 186.697 26.9153 187.958 27.722C189.234 28.514 190.158 29.6433 190.73 31.11H187.716C187.32 30.3033 186.77 29.702 186.066 29.306C185.362 28.91 184.548 28.712 183.624 28.712C182.612 28.712 181.71 28.9393 180.918 29.394C180.126 29.8487 179.503 30.5013 179.048 31.352C178.608 32.2027 178.388 33.1927 178.388 34.322C178.388 35.4513 178.608 36.4413 179.048 37.292C179.503 38.1427 180.126 38.8027 180.918 39.272C181.71 39.7267 182.612 39.954 183.624 39.954C184.548 39.954 185.362 39.756 186.066 39.36C186.77 38.964 187.32 38.3627 187.716 37.556H190.73C190.158 39.0227 189.234 40.152 187.958 40.944C186.697 41.736 185.252 42.132 183.624 42.132C182.187 42.132 180.874 41.802 179.686 41.142C178.498 40.4673 177.552 39.536 176.848 38.348C176.159 37.16 175.814 35.818 175.814 34.322ZM200.64 42.154C199.217 42.154 197.904 41.824 196.702 41.164C195.514 40.4893 194.568 39.558 193.864 38.37C193.174 37.1673 192.83 35.818 192.83 34.322C192.83 32.826 193.174 31.484 193.864 30.296C194.568 29.108 195.514 28.184 196.702 27.524C197.904 26.8493 199.217 26.512 200.64 26.512C202.077 26.512 203.39 26.8493 204.578 27.524C205.78 28.184 206.726 29.108 207.416 30.296C208.105 31.484 208.45 32.826 208.45 34.322C208.45 35.818 208.105 37.1673 207.416 38.37C206.726 39.558 205.78 40.4893 204.578 41.164C203.39 41.824 202.077 42.154 200.64 42.154ZM200.64 39.976C201.652 39.976 202.554 39.7487 203.346 39.294C204.138 38.8247 204.754 38.1647 205.194 37.314C205.648 36.4487 205.876 35.4513 205.876 34.322C205.876 33.1927 205.648 32.2027 205.194 31.352C204.754 30.5013 204.138 29.8487 203.346 29.394C202.554 28.9393 201.652 28.712 200.64 28.712C199.628 28.712 198.726 28.9393 197.934 29.394C197.142 29.8487 196.518 30.5013 196.064 31.352C195.624 32.2027 195.404 33.1927 195.404 34.322C195.404 35.4513 195.624 36.4487 196.064 37.314C196.518 38.1647 197.142 38.8247 197.934 39.294C198.726 39.7487 199.628 39.976 200.64 39.976ZM223.48 42H220.972L213.426 30.582V42H210.918V26.688H213.426L220.972 38.084V26.688H223.48V42ZM231.811 42.154C230.784 42.154 229.86 41.978 229.039 41.626C228.218 41.2593 227.572 40.746 227.103 40.086C226.634 39.426 226.399 38.656 226.399 37.776H229.083C229.142 38.436 229.398 38.9787 229.853 39.404C230.322 39.8293 230.975 40.042 231.811 40.042C232.676 40.042 233.351 39.8367 233.835 39.426C234.319 39.0007 234.561 38.458 234.561 37.798C234.561 37.2847 234.407 36.8667 234.099 36.544C233.806 36.2213 233.432 35.972 232.977 35.796C232.537 35.62 231.921 35.4293 231.129 35.224C230.132 34.96 229.318 34.696 228.687 34.432C228.071 34.1533 227.543 33.728 227.103 33.156C226.663 32.584 226.443 31.8213 226.443 30.868C226.443 29.988 226.663 29.218 227.103 28.558C227.543 27.898 228.159 27.392 228.951 27.04C229.743 26.688 230.66 26.512 231.701 26.512C233.182 26.512 234.392 26.886 235.331 27.634C236.284 28.3673 236.812 29.3793 236.915 30.67H234.143C234.099 30.1127 233.835 29.636 233.351 29.24C232.867 28.844 232.229 28.646 231.437 28.646C230.718 28.646 230.132 28.8293 229.677 29.196C229.222 29.5627 228.995 30.0907 228.995 30.78C228.995 31.2493 229.134 31.638 229.413 31.946C229.706 32.2393 230.073 32.474 230.513 32.65C230.953 32.826 231.554 33.0167 232.317 33.222C233.329 33.5007 234.15 33.7793 234.781 34.058C235.426 34.3367 235.969 34.7693 236.409 35.356C236.864 35.928 237.091 36.698 237.091 37.666C237.091 38.4433 236.878 39.1767 236.453 39.866C236.042 40.5553 235.434 41.1127 234.627 41.538C233.835 41.9487 232.896 42.154 231.811 42.154ZM242.536 26.71V36.456C242.536 37.6147 242.837 38.4873 243.438 39.074C244.054 39.6607 244.905 39.954 245.99 39.954C247.09 39.954 247.941 39.6607 248.542 39.074C249.158 38.4873 249.466 37.6147 249.466 36.456V26.71H251.974V36.412C251.974 37.6587 251.703 38.7147 251.16 39.58C250.618 40.4453 249.892 41.0907 248.982 41.516C248.073 41.9413 247.068 42.154 245.968 42.154C244.868 42.154 243.864 41.9413 242.954 41.516C242.06 41.0907 241.348 40.4453 240.82 39.58C240.292 38.7147 240.028 37.6587 240.028 36.412V26.71H242.536ZM257.748 39.976H262.918V42H255.24V26.71H257.748V39.976ZM274.893 26.71V28.756H270.823V42H268.315V28.756H264.223V26.71H274.893ZM279.941 26.71V42H277.433V26.71H279.941ZM295.796 42H293.288L285.742 30.582V42H283.234V26.688H285.742L293.288 38.084V26.688H295.796V42ZM310.155 31.11C309.759 30.3473 309.209 29.7753 308.505 29.394C307.801 28.998 306.987 28.8 306.063 28.8C305.051 28.8 304.149 29.0273 303.357 29.482C302.565 29.9367 301.942 30.582 301.487 31.418C301.047 32.254 300.827 33.222 300.827 34.322C300.827 35.422 301.047 36.3973 301.487 37.248C301.942 38.084 302.565 38.7293 303.357 39.184C304.149 39.6387 305.051 39.866 306.063 39.866C307.427 39.866 308.535 39.4847 309.385 38.722C310.236 37.9593 310.757 36.9253 310.947 35.62H305.205V33.618H313.631V35.576C313.47 36.764 313.045 37.8567 312.355 38.854C311.681 39.8513 310.793 40.6507 309.693 41.252C308.608 41.8387 307.398 42.132 306.063 42.132C304.626 42.132 303.313 41.802 302.125 41.142C300.937 40.4673 299.991 39.536 299.287 38.348C298.598 37.16 298.253 35.818 298.253 34.322C298.253 32.826 298.598 31.484 299.287 30.296C299.991 29.108 300.937 28.184 302.125 27.524C303.328 26.8493 304.641 26.512 306.063 26.512C307.691 26.512 309.136 26.9153 310.397 27.722C311.673 28.514 312.597 29.6433 313.169 31.11H310.155Z" fill="white"/>
</svg>
