<svg width="30" height="30" viewBox="0 0 30 30" fill="none" xmlns="http://www.w3.org/2000/svg">
<path fill-rule="evenodd" clip-rule="evenodd" d="M15 30C23.2845 30 30 23.2845 30 15C30 6.7155 23.2845 0 15 0C6.7155 0 0 6.7155 0 15C0 23.2845 6.7155 30 15 30ZM23.0565 10.2525C23.1267 10.1802 23.1816 10.0945 23.2179 10.0006C23.2542 9.90658 23.2712 9.80626 23.2679 9.70556C23.2647 9.60487 23.2411 9.50587 23.1987 9.41448C23.1563 9.32308 23.0959 9.24117 23.0212 9.17363C22.9464 9.10608 22.8588 9.05429 22.7636 9.02135C22.6684 8.9884 22.5675 8.97497 22.467 8.98187C22.3665 8.98876 22.2684 9.01584 22.1786 9.06147C22.0888 9.10711 22.0091 9.17038 21.9442 9.2475L12.96 19.1752L8.0175 14.457C7.87369 14.3196 7.68116 14.2449 7.48228 14.2494C7.2834 14.2539 7.09445 14.3372 6.957 14.481C6.81955 14.6248 6.74486 14.8173 6.74936 15.0162C6.75386 15.2151 6.83719 15.4041 6.981 15.5415L12.4815 20.7915L13.0387 21.324L13.5555 20.7525L23.0565 10.2525Z" fill="#004AAD"/>
</svg>
