<svg width="40" height="118" viewBox="0 0 40 118" fill="none" xmlns="http://www.w3.org/2000/svg">
<path d="M18.2322 116.768C19.2085 117.744 20.7915 117.744 21.7678 116.768L37.6777 100.858C38.654 99.8815 38.654 98.2986 37.6777 97.3223C36.7014 96.346 35.1184 96.346 34.1421 97.3223L20 111.464L5.85787 97.3223C4.88155 96.346 3.29864 96.346 2.32233 97.3223C1.34602 98.2986 1.34602 99.8815 2.32233 100.858L18.2322 116.768ZM17.5 15L17.5 115H22.5L22.5 15H17.5Z" fill="#004AAD"/>
<path d="M40 23.7573C40 20.7369 39.4827 17.7461 38.4776 14.9556C37.4725 12.1651 35.9993 9.62962 34.1421 7.49387C32.285 5.35812 30.0802 3.66395 27.6537 2.5081C25.2272 1.35224 22.6264 0.757327 20 0.757327C17.3736 0.757327 14.7728 1.35224 12.3463 2.5081C9.91982 3.66395 7.71504 5.35812 5.85786 7.49387C4.00069 9.62962 2.5275 12.1651 1.52241 14.9556C0.517315 17.7461 -1.14805e-07 20.7369 0 23.7573L3.6 23.7573C3.6 21.2806 4.0242 18.8281 4.84838 16.5399C5.67255 14.2517 6.88057 12.1726 8.40345 10.4213C9.92633 8.66998 11.7343 7.28076 13.724 6.33296C15.7137 5.38515 17.8463 4.89733 20 4.89733C22.1537 4.89733 24.2863 5.38515 26.276 6.33296C28.2657 7.28076 30.0737 8.66998 31.5966 10.4213C33.1194 12.1726 34.3274 14.2517 35.1516 16.5399C35.9758 18.8281 36.4 21.2806 36.4 23.7573L40 23.7573Z" fill="#004AAD"/>
<path d="M2.38419e-06 27.7664C2.38419e-06 30.7868 0.517317 33.7776 1.52241 36.5681C2.52751 39.3586 4.00069 41.8941 5.85787 44.0298C7.71504 46.1656 9.91982 47.8597 12.3463 49.0156C14.7728 50.1714 17.3736 50.7664 20 50.7664C22.6264 50.7664 25.2272 50.1714 27.6537 49.0156C30.0802 47.8597 32.285 46.1656 34.1421 44.0298C35.9993 41.8941 37.4725 39.3586 38.4776 36.5681C39.4827 33.7776 40 30.7868 40 27.7664L36.4 27.7664C36.4 30.2431 35.9758 32.6956 35.1516 34.9838C34.3274 37.272 33.1194 39.3511 31.5966 41.1024C30.0737 42.8537 28.2657 44.2429 26.276 45.1907C24.2863 46.1385 22.1537 46.6264 20 46.6264C17.8463 46.6264 15.7137 46.1385 13.724 45.1907C11.7343 44.2429 9.92633 42.8537 8.40345 41.1024C6.88057 39.3511 5.67256 37.272 4.84838 34.9838C4.0242 32.6956 3.6 30.2431 3.6 27.7664L2.38419e-06 27.7664Z" fill="#004AAD"/>
</svg>
